<?xml version="1.0" encoding="UTF-8" standalone="no"?>
<!-- Created with Inkscape (http://www.inkscape.org/) -->
<svg xmlns:rdf="http://www.w3.org/1999/02/22-rdf-syntax-ns#" xmlns="http://www.w3.org/2000/svg" xmlns:cc="http://web.resource.org/cc/" xmlns:dc="http://purl.org/dc/elements/1.1/" xmlns:svg="http://www.w3.org/2000/svg" xmlns:inkscape="http://www.inkscape.org/namespaces/inkscape" xmlns:sodipodi="http://sodipodi.sourceforge.net/DTD/sodipodi-0.dtd" xmlns:ns1="http://sozi.baierouge.fr" xmlns:xlink="http://www.w3.org/1999/xlink" id="svg2" xml:space="preserve" version="1.1" viewBox="-0.327 -0.089 463 463" inkscape:version="0.91 r13725">
	<path id="path2827" style="stroke:#000000;stroke-width:22;fill:#ffffff" d="m231.17 451.91c-121.78 0-220.5-98.72-220.5-220.5s98.721-220.5 220.5-220.5 220.5 98.722 220.5 220.5-98.721 220.5-220.5 220.5z"/><path id="path8" d="m120.8 110.04c24.267-7.07 126.59 6.86 105.68 105.84-7.609 36.019-49.357 53.566-69.592 68.72-47.901 35.873-6.648 121.07-6.648 121.07s-22.318-66.267 27.382-97.619c45.73-28.84 203.38-15.29 202.84-104.26-1.04-170.47-266.66-108.97-259.66-93.75z"/><rect id="rect10" y="61.29" width="20.208" x="141.2" height="250.63"/>
<metadata><rdf:RDF><cc:Work><dc:format>image/svg+xml</dc:format><dc:type rdf:resource="http://purl.org/dc/dcmitype/StillImage"/><cc:license rdf:resource="http://creativecommons.org/licenses/publicdomain/"/><dc:publisher><cc:Agent rdf:about="http://openclipart.org/"><dc:title>Openclipart</dc:title></cc:Agent></dc:publisher><dc:title>pirate party flag</dc:title><dc:date>2010-04-03T16:12:08</dc:date><dc:description>This Icons is PD&#13;\nsource:&#13;\nhttp://commons.wikimedia.org/wiki/File:Piratpartiet.svg</dc:description><dc:source>https://openclipart.org/detail/36763/pirate-party-flag-by-tavin</dc:source><dc:creator><cc:Agent><dc:title>Tavin</dc:title></cc:Agent></dc:creator><dc:subject><rdf:Bag><rdf:li>pirate party pirateparty flag icon smybol</rdf:li></rdf:Bag></dc:subject></cc:Work><cc:License rdf:about="http://creativecommons.org/licenses/publicdomain/"><cc:permits rdf:resource="http://creativecommons.org/ns#Reproduction"/><cc:permits rdf:resource="http://creativecommons.org/ns#Distribution"/><cc:permits rdf:resource="http://creativecommons.org/ns#DerivativeWorks"/></cc:License></rdf:RDF></metadata></svg>
